<?xml version="1.0" standalone="no"?>
<!DOCTYPE svg PUBLIC "-//W3C//DTD SVG 20010904//EN"
 "http://www.w3.org/TR/2001/REC-SVG-20010904/DTD/svg10.dtd">
<svg version="1.0" xmlns="http://www.w3.org/2000/svg"
 width="180.000000pt" height="180.000000pt" viewBox="0 0 180.000000 180.000000"
 preserveAspectRatio="xMidYMid meet">
<metadata>
Created by potrace 1.16, written by Peter Selinger 2001-2019
</metadata>
<g transform="translate(0.000000,180.000000) scale(0.100000,-0.100000)"
fill="#000000" stroke="none">
<path d="M230 900 l0 -340 220 0 220 0 0 340 0 340 -220 0 -220 0 0 -340z
m330 0 l0 -229 -110 0 -110 0 0 229 0 229 110 0 110 0 0 -229z"/>
<path d="M900 900 l0 -340 55 0 55 0 0 115 0 115 115 0 115 0 0 -115 0 -115
55 0 55 0 0 340 0 340 -55 0 -55 0 0 -170 0 -170 -115 0 -115 0 0 170 0 170
-55 0 -55 0 0 -340z"/>
</g>
</svg>
